<svg xmlns="http://www.w3.org/2000/svg" viewBox="0 0 424.86 54.26" width="180" height="24">
  <rect x="372.74" y="0.63" width="52.12" height="51.97" rx="8.18" fill="#EE326E"/>
  <path fill="#14153D" d="M3.26,13.24a23.56,23.56,0,0,1,9.27-9.53A27.42,27.42,0,0,1,26.34.3Q36.24.3,43,5.59A24.07,24.07,0,0,1,51.7,20H35.86a10.27,10.27,0,0,0-9.75-6.15A10.07,10.07,0,0,0,18,17.44q-3,3.64-3,9.72A15.32,15.32,0,0,0,18,37a10.05,10.05,0,0,0,8.14,3.64,10.27,10.27,0,0,0,9.75-6.15H51.7A24.08,24.08,0,0,1,43,48.81q-6.75,5.28-16.65,5.29a27.32,27.32,0,0,1-13.81-3.42,23.49,23.49,0,0,1-9.27-9.53A29.33,29.33,0,0,1,0,27.16,29.28,29.28,0,0,1,3.26,13.24Z"/>
  <path fill="#14153D" d="M70.38,50.76a26.06,26.06,0,0,1-9.87-9.68,27.07,27.07,0,0,1-3.64-14,27.07,27.07,0,0,1,3.64-14,25.75,25.75,0,0,1,9.87-9.64,28.83,28.83,0,0,1,27.35,0,25.54,25.54,0,0,1,9.79,9.64,27.35,27.35,0,0,1,3.6,14,27.25,27.25,0,0,1-3.6,14,25.67,25.67,0,0,1-9.83,9.68A28.48,28.48,0,0,1,70.38,50.76ZM92.92,36.91q3.27-3.67,3.27-9.82,0-6.32-3.27-9.95A11.39,11.39,0,0,0,84,13.51q-5.7,0-8.93,3.63t-3.22,10q0,6.22,3.22,9.86T84,40.59A11.24,11.24,0,0,0,92.92,36.91Z"/>
  <path fill="#14153D" d="M166.71,53.72H152L132.43,24.16V53.72H117.72V.83h14.71L152,30.76V.83h14.7Z"/>
  <rect fill="#14153D" x="324.44" y="20.37" width="38.9" height="11.76"/>
  <rect fill="#14153D" x="341.8" y="40.85" width="21.55" height="11.76"/>
  <path fill="#14153D" d="M215,.83v11.7H200.85V53.72h-14.7V12.53h-14V.83Z"/>
  <path fill="#14153D" d="M253.52,53.72,243.24,38.79l-8.78,14.93H217.73l17.18-27.08L217.13.83h17.33l10,14.55L253,.83h16.73l-17,26.63,18.08,26.26Z"/>
  <path fill="#14153D" d="M363.34.83v11.7H301.61V53.72h-14.7V12.53H273V.83Z"/>
  <path fill="#FEF7EC" d="M385.11,47.53H388v2.89h-2.93Z"/>
  <path fill="#FEF7EC" d="M401.24,36.16v2.53H397V50.42h-3V38.69h-4.3V36.16Z"/>
  <path fill="#FEF7EC" d="M413.61,49.15a7.41,7.41,0,0,1-9.34,0,7.65,7.65,0,0,1-2.17-5.88q0-3.92,2.17-5.88a7.41,7.41,0,0,1,9.34,0,7.61,7.61,0,0,1,2.16,5.88A7.69,7.69,0,0,1,413.61,49.15ZM411.75,47a5.83,5.83,0,0,0,1-3.71,5.89,5.89,0,0,0-1-3.71,3.68,3.68,0,0,0-5.63,0,5.73,5.73,0,0,0-1.06,3.71A5.73,5.73,0,0,0,406.12,47a3.68,3.68,0,0,0,5.63,0Z"/>
</svg>
